<?xml version="1.0" encoding="utf-8"?>
<!-- Generator: Adobe Illustrator 15.0.2, SVG Export Plug-In  -->
<!DOCTYPE svg PUBLIC "-//W3C//DTD SVG 1.1//EN" "http://www.w3.org/Graphics/SVG/1.1/DTD/svg11.dtd" [
	<!ENTITY ns_flows "http://ns.adobe.com/Flows/1.0/">
]>
<svg version="1.1"
	 xmlns="http://www.w3.org/2000/svg" xmlns:xlink="http://www.w3.org/1999/xlink" xmlns:a="http://ns.adobe.com/AdobeSVGViewerExtensions/3.0/"
	 x="0px" y="0px" width="360px" height="240px" viewBox="-12.004 -11.997 360 240"
	 overflow="visible" enable-background="new -12.004 -11.997 360 240" xml:space="preserve">
<defs>
</defs>
<path fill="#FFFFFF" d="M332.33,181h-30.668c-0.37,0-0.669,0.3-0.669,0.668v30.668c0,0.37,0.299,0.67,0.669,0.67h30.668
	c0.369,0,0.668-0.3,0.668-0.67v-30.668C332.998,181.3,332.699,181,332.33,181L332.33,181z M316.997,211.667v-14.664h-14.664v-14.664
	h14.664v14.664h14.664v14.664H316.997L316.997,211.667z"/>
<path fill="#FFFFFF" d="M268.051,215.992H243.94c-3.831,0-6.938-3.093-6.938-6.907v-5.549c0-3.813,3.107-6.908,6.938-6.908h24.111
	c3.831,0,6.938,3.095,6.938,6.908v5.549C274.99,212.899,271.882,215.992,268.051,215.992L268.051,215.992z M249.006,199.062h-6.646
	v1.887h2.24v11.084h2.165v-11.084h2.241V199.062L249.006,199.062z M255.337,202.463h-1.92v7.27
	c-0.181,0.208-0.379,0.379-0.597,0.514c-0.217,0.134-0.397,0.2-0.535,0.2c-0.181,0-0.312-0.047-0.395-0.152
	c-0.077-0.1-0.12-0.263-0.12-0.49v-7.341h-1.92v8.001c0,0.572,0.114,0.996,0.336,1.282c0.227,0.287,0.56,0.427,1.005,0.427
	c0.361,0,0.732-0.097,1.115-0.306c0.385-0.2,0.753-0.495,1.11-0.883v1.049h1.92V202.463L255.337,202.463z M262.31,204.746
	c0-0.783-0.159-1.38-0.48-1.788c-0.32-0.407-0.785-0.609-1.393-0.609c-0.299,0-0.594,0.073-0.887,0.228
	c-0.288,0.149-0.563,0.373-0.824,0.663v-4.177h-1.943v12.971h1.943v-0.734c0.252,0.297,0.529,0.512,0.822,0.649
	c0.291,0.139,0.627,0.207,1.005,0.207c0.568,0,1.006-0.179,1.307-0.54c0.301-0.363,0.45-0.882,0.45-1.558V204.746L262.31,204.746z
	 M268.976,208.846h-1.978v0.435c0,0.565-0.066,0.926-0.191,1.093c-0.127,0.164-0.349,0.248-0.669,0.248
	c-0.306,0-0.523-0.097-0.65-0.291c-0.127-0.195-0.188-0.546-0.188-1.05v-1.802h3.677v-2.44c0-0.907-0.236-1.603-0.708-2.087
	c-0.473-0.482-1.15-0.724-2.029-0.724c-0.86,0-1.56,0.259-2.103,0.781c-0.546,0.521-0.817,1.203-0.817,2.029v4.298
	c0,0.922,0.25,1.648,0.742,2.17c0.493,0.527,1.173,0.789,2.034,0.789c0.957,0,1.677-0.247,2.154-0.74
	c0.486-0.499,0.727-1.237,0.727-2.219V208.846L268.976,208.846z M265.299,205.989v-0.966c0-0.402,0.064-0.69,0.199-0.858
	c0.134-0.179,0.352-0.265,0.657-0.265c0.294,0,0.51,0.086,0.641,0.265c0.134,0.168,0.202,0.456,0.202,0.858v0.966H265.299
	L265.299,205.989z M260.165,210.453c-0.11,0.136-0.282,0.204-0.519,0.204c-0.164,0-0.316-0.036-0.465-0.103
	c-0.147-0.067-0.3-0.186-0.455-0.341v-5.961c0.13-0.131,0.263-0.23,0.396-0.293s0.27-0.092,0.408-0.092
	c0.259,0,0.457,0.082,0.599,0.247c0.136,0.168,0.202,0.411,0.202,0.736v4.941C260.332,210.101,260.274,210.317,260.165,210.453
	L260.165,210.453z M249.533,187.375v5.927h-2.436v-5.66l-2.899-8.628h2.452l1.583,5.712h0.153l1.508-5.712h2.474L249.533,187.375
	L249.533,187.375z M257.986,192.8c-0.563,0.513-1.334,0.769-2.317,0.769c-0.945,0-1.706-0.267-2.272-0.796
	c-0.566-0.53-0.851-1.24-0.851-2.136v-5.464c0-0.821,0.289-1.468,0.872-1.953c0.581-0.482,1.366-0.724,2.348-0.724
	c0.897,0,1.631,0.256,2.204,0.764c0.568,0.51,0.854,1.171,0.854,1.972v5.446C258.824,191.58,258.543,192.283,257.986,192.8
	L257.986,192.8z M256.62,185.092c0-0.229-0.09-0.414-0.265-0.56c-0.177-0.141-0.407-0.211-0.693-0.211
	c-0.265,0-0.478,0.07-0.646,0.211c-0.163,0.146-0.245,0.331-0.245,0.56v5.743c0,0.289,0.077,0.511,0.23,0.67
	c0.154,0.161,0.374,0.238,0.66,0.238c0.293,0,0.525-0.081,0.697-0.241c0.173-0.163,0.261-0.385,0.261-0.667V185.092L256.62,185.092z
	 M264.59,193.302v-1.165c-0.397,0.429-0.812,0.758-1.246,0.983c-0.432,0.222-0.848,0.336-1.254,0.336
	c-0.502,0-0.878-0.159-1.132-0.476c-0.252-0.312-0.379-0.779-0.379-1.409v-8.809h2.16v8.081c0,0.248,0.05,0.427,0.14,0.538
	c0.087,0.114,0.237,0.17,0.439,0.17c0.159,0,0.359-0.073,0.604-0.222c0.241-0.148,0.465-0.338,0.667-0.566v-8.001h2.163v10.539
	H264.59L264.59,193.302z"/>
<path fill="#FFFFFF" d="M179.999,199.071c4.246,0,8.236,1.654,11.236,4.659c3.006,3.006,4.661,7.009,4.661,11.271h6.544
	c0-12.38-10.067-22.449-22.441-22.449V199.071L179.999,199.071z M180.007,187.515c15.135,0,27.447,12.335,27.447,27.494h6.544
	c0-18.755-15.249-34.013-33.991-34.013V187.515L180.007,187.515z M189.057,210.455c0,2.494-2.03,4.516-4.534,4.516
	c-2.501,0-4.53-2.021-4.53-4.516s2.029-4.517,4.53-4.517C187.027,205.938,189.057,207.961,189.057,210.455L189.057,210.455z"/>
<path fill="#FFFFFF" d="M135.847,192.01l-3.048,5.368l-2.745,4.835l-4.246,7.48c-0.229,0.4-0.742,0.54-1.139,0.31l-2.167-1.261
	c-0.397-0.229-0.537-0.744-0.306-1.146l3.055-5.383l3.662-6.447l3.324-5.852c0.227-0.402,0.738-0.542,1.135-0.31l2.167,1.255
	C135.936,191.092,136.074,191.609,135.847,192.01L135.847,192.01z M153.237,202.213h-4.041c-0.056-0.222-0.138-0.439-0.25-0.65
	c-0.109-0.199-0.417-0.793-0.806-1.543c-0.562-1.086-1.359-2.623-2.221-4.254h7.318c0.415,0,0.753,0.342,0.753,0.762v4.926
	C153.99,201.873,153.652,202.213,153.237,202.213L153.237,202.213z M131.79,202.213l3.66-6.447h3.314
	c1.282,2.95,2.239,5.008,2.959,6.447H131.79L131.79,202.213z M123.516,202.213h-4.761c-0.417,0-0.752-0.34-0.752-0.76v-4.926
	c0-0.42,0.336-0.762,0.752-0.762h8.423L123.516,202.213L123.516,202.213z M123.997,211.86l-2.8,1.931
	c-0.379,0.26-0.646,0.095-0.594-0.364l0.374-3.301c0.053-0.458,0.42-0.647,0.817-0.417l2.167,1.257
	C124.358,211.198,124.375,211.603,123.997,211.86L123.997,211.86z M146.54,204.326c-0.58,0.243-0.916,0.486-1.783,0.048
	c-0.867-0.439-5.19-10.528-6.299-13.16c-1.108-2.634-4.455-9.639-3.374-10.184c0.772-0.392,3.537,5.127,5.608,8.438
	c1.184,1.89,3.101,5.483,4.627,8.401c0.021,0.039,0.041,0.077,0.061,0.114c0.07,0.133,0.138,0.263,0.206,0.394
	c0.018,0.035,0.036,0.071,0.056,0.107c0.061,0.116,0.12,0.229,0.179,0.341c0.032,0.064,0.066,0.129,0.098,0.191
	c0.04,0.073,0.077,0.148,0.114,0.22c0.054,0.101,0.105,0.199,0.156,0.297c0.007,0.019,0.016,0.032,0.025,0.051
	c0.662,1.271,1.166,2.251,1.368,2.628c0.016,0.03,0.032,0.061,0.045,0.082C148.156,203.273,147.117,204.083,146.54,204.326
	L146.54,204.326z M149.749,208.785l-0.889,0.54c-0.423,0.259-0.992,0.118-1.262-0.313l-1.307-2.086
	c-0.268-0.433-0.131-0.969,0.308-1.2l1.244-0.646c0.44-0.228,0.989-0.043,1.223,0.411l1.032,2.004
	C150.33,207.946,150.173,208.529,149.749,208.785L149.749,208.785z M152.907,214.994c-0.274-0.883-2.358-0.942-3.29-2.274
	c-0.935-1.326-0.163-2.011,0.163-2.325C153.562,208.238,152.907,214.994,152.907,214.994L152.907,214.994z"/>
<path fill="#FFFFFF" d="M65.754,206.009c-4.291,0-7.768-3.585-7.768-8.007c0-4.419,3.478-8.006,7.768-8.006
	c4.288,0,7.765,3.587,7.765,8.006C73.52,202.424,70.042,206.009,65.754,206.009L65.754,206.009z M85.239,206.009
	c-4.289,0-7.767-3.585-7.767-8.007c0-4.419,3.478-8.006,7.767-8.006s7.765,3.587,7.765,8.006
	C93.003,202.424,89.528,206.009,85.239,206.009L85.239,206.009z"/>
<path fill-rule="evenodd" clip-rule="evenodd" fill="#FFFFFF" d="M29.9,196.2c-0.433,5.012-3.409,8.593-10.091,9.187
	c0.969,0.92,1.577,2.241,1.577,3.709v4.906H10.459v-3.599c-0.474,0.102-4.477,1.141-6.257-1.949
	c-0.299-0.532-0.785-2.401-2.099-3.437c-0.046-0.041-1.016-0.55-1.105-1.053c-0.011-0.069,0.062-0.216,0.157-0.252
	c0.1-0.039,1.697-0.715,3.476,1.612c0.537,0.78,1.749,3.77,5.988,1.922c0.016-0.069,0.109-0.121,0.247-0.168
	c0.272-0.642,0.669-1.214,1.161-1.682c-6.117-0.817-8.929-3.308-9.812-8.79c-0.558-3.794,0.517-6.947,2.129-8.503
	c-0.245-0.332-1.049-3.104,0.202-6.036c1.357-0.28,3.846,0.725,6.032,2.348c3.084-1.149,8.875-0.851,10.949,0
	c0.983-0.84,4.502-2.802,6.011-2.344c0.443,1.164,1.083,3.985,0.198,6.041C29.7,190.2,30.254,192.893,29.9,196.2L29.9,196.2z"/>
<path fill="#FFFFFF" d="M308.468,147.479l-11.473-7.434l7.933-6.306l11.567,7.09L308.468,147.479L308.468,147.479z M304.928,133.739
	l-7.933-6.307l11.473-7.432l8.027,6.649L304.928,133.739L304.928,133.739z M328.063,133.739l-11.567-7.089l8.027-6.649l11.472,7.432
	L328.063,133.739L328.063,133.739z M324.523,147.479l-8.027-6.649l11.567-7.09l7.932,6.306L324.523,147.479L324.523,147.479z
	 M316.521,156.005l-11.498-6.844v-2.505l3.445,2.235l8.053-6.632l8.049,6.632l3.445-2.235v2.505L316.521,156.005L316.521,156.005z"
	/>
<path fill="#FFFFFF" d="M256.796,135.103c-0.116,0.115-0.227,0.176-0.347,0.176c-0.209,0-0.388-0.145-0.441-0.34
	c-0.013-0.041-0.018-0.12-0.018-0.164v-4.853c-1.306,0-3.358-0.066-4.345,0.127c-2.825,0.452-3.665,2.475-3.665,5.649v8.173
	l-6.985,6.99v-10.729c0-0.401,0-4.447,0-5.356c0-7.666,3.64-11.772,10.769-11.772h9.011l8.124,0.002L256.796,135.103
	L256.796,135.103z M260.228,153.003h-9.012l-8.124-0.002l12.103-12.098c0.116-0.115,0.227-0.176,0.347-0.176
	c0.209,0,0.388,0.145,0.441,0.34c0.013,0.041,0.019,0.12,0.019,0.164v4.853c1.305,0,3.357,0.066,4.344-0.125
	c2.825-0.454,3.665-2.477,3.665-5.651v-8.173l6.985-6.99v10.729c0,0.401,0,4.448,0,5.356
	C270.996,148.896,267.358,153.003,260.228,153.003L260.228,153.003z"/>
<path fill="#FFFFFF" d="M208.774,150.497c-0.424,0.339-0.874,0.646-1.326,0.915l-0.02,0.015c-3.438,2.163-7.872,3.487-11.79,3.575
	c-0.125,0.004-0.246,0.006-0.366,0.006c-6.159-0.002-10.741-3.378-14.922-7.013c-0.201-0.16-0.347-0.407-0.347-0.679
	c-0.002-0.208,0.088-0.411,0.238-0.553c0.148-0.142,0.354-0.217,0.556-0.217c0.155,0,0.313,0.043,0.469,0.126
	c4.455,2.474,8.867,4.987,14.277,4.984c0.124,0,0.251,0,0.378-0.004c3.439-0.073,7.156-0.915,10.696-2.353v-0.004l0.326-0.131
	l0.25-0.104c0.17-0.073,0.351-0.155,0.527-0.225c0.157-0.075,0.325-0.113,0.49-0.113c0.517,0,0.997,0.385,1.006,0.951
	C209.221,149.994,209.039,150.3,208.774,150.497L208.774,150.497z M210.794,151.993c-0.17,0.134-0.368,0.227-0.603,0.229h-0.005
	c-0.158,0-0.342-0.054-0.485-0.189c-0.148-0.136-0.216-0.341-0.212-0.511c0-0.116,0.022-0.224,0.061-0.32
	c0.161-0.422,0.4-1.057,0.599-1.691c0.202-0.631,0.353-1.28,0.347-1.629c0.002-0.093-0.009-0.157-0.018-0.183
	c-0.006-0.003-0.015-0.009-0.026-0.014c-0.038-0.02-0.107-0.043-0.199-0.062c-0.181-0.04-0.445-0.06-0.741-0.06
	c-0.417,0-0.899,0.038-1.353,0.088c-0.528,0.075-0.981,0.12-1.29,0.185l-0.025,0.005l-0.028,0.002
	c-0.032,0.005-0.068,0.007-0.104,0.007c-0.157,0-0.336-0.041-0.489-0.166c-0.154-0.125-0.247-0.334-0.241-0.517
	c0.011-0.336,0.194-0.555,0.414-0.721c0.356-0.258,0.739-0.476,1.159-0.65v-0.017l0.357-0.116l0.013-0.005l0.635-0.211v0.041
	c0.629-0.138,1.259-0.191,1.827-0.191c0.792,0.003,1.448,0.095,1.898,0.27c0.152,0.066,0.292,0.127,0.438,0.286l0.016,0.021
	l0.017,0.02c0.143,0.219,0.216,0.479,0.229,0.826l0.004,0.207C212.965,148.229,212.406,150.543,210.794,151.993L210.794,151.993z
	 M205.756,141.749c0.22,0.36,0.293,0.799-0.071,1.09c-0.8,0.728-2.328,2.04-3.204,2.77c-0.29,0.219-0.652,0.219-1.018,0.073
	c-1.382-1.165-1.602-1.677-2.401-2.771c-1.385,1.458-2.547,2.26-3.931,2.697c-0.873,0.219-1.82,0.365-2.984,0.365
	c-3.493,0-6.26-2.186-6.26-6.488c0-3.424,1.82-5.756,4.513-6.848c1.382-0.658,3.056-0.948,4.731-1.17
	c1.092-0.143,2.183-0.216,3.13-0.287v-0.583c0-1.021,0.071-2.187-0.51-3.062c-0.509-0.728-1.455-1.095-2.329-1.095h-0.291
	c-1.456,0.146-2.767,0.949-3.131,2.554c-0.071,0.36-0.29,0.728-0.728,0.799l-4.075-0.51c-0.291-0.073-0.729-0.289-0.583-0.872
	c0.873-4.593,4.805-6.199,8.517-6.413h0.874c2.038,0,4.659,0.583,6.332,2.113c2.037,1.892,1.818,4.442,1.818,7.214v6.558
	C204.156,139.852,204.958,140.726,205.756,141.749L205.756,141.749z M198.261,135.407v-0.876c-1.092,0-2.185,0.073-3.13,0.291
	c-1.747,0.512-3.131,1.604-3.131,3.937c0,1.82,0.947,3.062,2.548,3.062c0.22,0,0.438-0.071,0.583-0.071
	c0.945-0.224,1.819-0.88,2.329-1.897C198.333,138.393,198.261,137.082,198.261,135.407L198.261,135.407z"/>
<path fill="#FFFFFF" d="M136.993,121.996l-20.004,29.01h4.09l4.552-6.878h22.726l4.55,6.878h4.092L136.993,121.996L136.993,121.996z
	 M128.246,141.003l8.747-12.684l8.746,12.684H128.246L128.246,141.003z"/>
<path fill-rule="evenodd" clip-rule="evenodd" fill="#FFFFFF" d="M81.851,136.771l10.656-10.297c0.302,0.297,0.488,0.71,0.488,1.164
	v20.729c0,0.429-0.17,0.819-0.441,1.11L81.851,136.771L81.851,136.771z M58.542,126.429c0.29-0.262,0.672-0.426,1.094-0.426h31.719
	c0.422,0,0.803,0.164,1.094,0.426l-16.954,13.21L58.542,126.429L58.542,126.429z M58.438,149.478
	c-0.273-0.291-0.443-0.682-0.443-1.11v-20.729c0-0.454,0.188-0.867,0.49-1.164l10.654,10.297L58.438,149.478L58.438,149.478z
	 M75.495,142.912l4.45-4.3l12.535,10.94c-0.293,0.277-0.688,0.45-1.125,0.45H59.637c-0.437,0-0.832-0.173-1.125-0.45l12.535-10.94
	L75.495,142.912L75.495,142.912z"/>
<path fill="#FFFFFF" d="M17.171,137.437c0.011-0.017,0.021-0.032,0.032-0.051v0.051H17.171L17.171,137.437z M29.627,155H2.364
	C1.059,155,0,153.973,0,152.708v-27.41c0-1.266,1.059-2.292,2.364-2.292h27.263c1.307,0,2.365,1.026,2.365,2.292v27.41
	C31.992,153.973,30.934,155,29.627,155L29.627,155z M4.865,149.787h4.833v-14.444H4.865V149.787L4.865,149.787z M7.312,128.377
	c-1.652,0-2.734,1.08-2.734,2.496c0,1.386,1.05,2.496,2.669,2.496H7.28c1.686,0,2.735-1.11,2.735-2.496
	C9.983,129.457,8.966,128.377,7.312,128.377L7.312,128.377z M27.121,141.504c0-4.438-2.383-6.503-5.562-6.503
	c-2.565,0-3.713,1.401-4.355,2.385v-2.043H12.37c0.064,1.354,0,14.444,0,14.444h4.833v-8.067c0-0.433,0.03-0.861,0.159-1.171
	c0.351-0.863,1.145-1.758,2.48-1.758c1.749,0,2.448,1.325,2.448,3.267v7.729h4.831V141.504L27.121,141.504z"/>
<path fill="#A2A2A2" d="M332.33,61.001h-30.668c-0.37,0-0.669,0.298-0.669,0.668v30.667c0,0.368,0.299,0.669,0.669,0.669h30.668
	c0.369,0,0.668-0.301,0.668-0.669V61.669C332.998,61.299,332.699,61.001,332.33,61.001L332.33,61.001z M316.997,91.668V77.002
	h-14.664V62.34h14.664v14.663h14.664v14.666H316.997L316.997,91.668z"/>
<path fill="#A2A2A2" d="M268.051,95.993H243.94c-3.831,0-6.938-3.093-6.938-6.907v-5.551c0-3.813,3.107-6.908,6.938-6.908h24.111
	c3.831,0,6.938,3.095,6.938,6.908v5.551C274.99,92.9,271.882,95.993,268.051,95.993L268.051,95.993z M249.006,79.062h-6.646v1.886
	h2.24v11.085h2.165V80.948h2.241V79.062L249.006,79.062z M255.337,82.464h-1.92v7.268c-0.181,0.209-0.379,0.379-0.597,0.515
	c-0.217,0.134-0.397,0.2-0.535,0.2c-0.181,0-0.312-0.048-0.395-0.152c-0.077-0.1-0.12-0.265-0.12-0.49v-7.341h-1.92v7.999
	c0,0.572,0.114,0.996,0.336,1.282c0.227,0.288,0.56,0.429,1.005,0.429c0.361,0,0.732-0.098,1.115-0.306
	c0.385-0.2,0.753-0.497,1.11-0.885v1.05h1.92V82.464L255.337,82.464z M262.31,84.748c0-0.785-0.159-1.382-0.48-1.79
	c-0.32-0.407-0.785-0.609-1.393-0.609c-0.299,0-0.594,0.075-0.887,0.229c-0.288,0.15-0.563,0.374-0.824,0.663v-4.178h-1.943v12.971
	h1.943V91.3c0.252,0.295,0.529,0.51,0.822,0.647c0.291,0.141,0.627,0.209,1.005,0.209c0.568,0,1.006-0.179,1.307-0.542
	c0.301-0.363,0.45-0.881,0.45-1.557V84.748L262.31,84.748z M268.976,88.845h-1.978v0.436c0,0.563-0.066,0.924-0.191,1.093
	c-0.127,0.165-0.349,0.247-0.669,0.247c-0.306,0-0.523-0.095-0.65-0.292c-0.127-0.195-0.188-0.545-0.188-1.048v-1.802h3.677v-2.44
	c0-0.909-0.236-1.602-0.708-2.087c-0.473-0.484-1.15-0.726-2.029-0.726c-0.86,0-1.56,0.261-2.103,0.781
	c-0.546,0.522-0.817,1.203-0.817,2.031v4.298c0,0.922,0.25,1.646,0.742,2.168c0.493,0.528,1.173,0.789,2.034,0.789
	c0.957,0,1.677-0.245,2.154-0.738c0.486-0.499,0.727-1.237,0.727-2.219V88.845L268.976,88.845z M265.299,85.99v-0.967
	c0-0.402,0.064-0.69,0.199-0.858c0.134-0.179,0.352-0.265,0.657-0.265c0.294,0,0.51,0.086,0.641,0.265
	c0.134,0.168,0.202,0.456,0.202,0.858v0.967H265.299L265.299,85.99z M260.165,90.453c-0.11,0.138-0.282,0.206-0.519,0.206
	c-0.164,0-0.316-0.038-0.465-0.104c-0.147-0.068-0.3-0.186-0.455-0.339v-5.963c0.13-0.13,0.263-0.23,0.396-0.291
	c0.134-0.063,0.27-0.093,0.408-0.093c0.259,0,0.457,0.084,0.599,0.249c0.136,0.167,0.202,0.411,0.202,0.735v4.943
	C260.332,90.1,260.274,90.318,260.165,90.453L260.165,90.453z M249.533,67.375v5.929h-2.436v-5.662l-2.899-8.628h2.452l1.583,5.712
	h0.153l1.508-5.712h2.474L249.533,67.375L249.533,67.375z M257.986,72.799c-0.563,0.513-1.334,0.771-2.317,0.771
	c-0.945,0-1.706-0.266-2.272-0.795c-0.566-0.533-0.851-1.243-0.851-2.138v-5.464c0-0.819,0.289-1.468,0.872-1.951
	c0.581-0.482,1.366-0.726,2.348-0.726c0.897,0,1.631,0.255,2.204,0.763c0.568,0.51,0.854,1.171,0.854,1.974v5.444
	C258.824,71.58,258.543,72.282,257.986,72.799L257.986,72.799z M256.62,65.091c0-0.229-0.09-0.413-0.265-0.56
	c-0.177-0.141-0.407-0.209-0.693-0.209c-0.265,0-0.478,0.068-0.646,0.209c-0.163,0.147-0.245,0.331-0.245,0.56v5.743
	c0,0.29,0.077,0.512,0.23,0.67c0.154,0.161,0.374,0.238,0.66,0.238c0.293,0,0.525-0.079,0.697-0.241
	c0.173-0.161,0.261-0.384,0.261-0.667V65.091L256.62,65.091z M264.59,73.303v-1.167c-0.397,0.429-0.812,0.758-1.246,0.983
	c-0.432,0.222-0.848,0.338-1.254,0.338c-0.502,0-0.878-0.161-1.132-0.476c-0.252-0.311-0.379-0.781-0.379-1.409v-8.811h2.16v8.083
	c0,0.247,0.05,0.427,0.14,0.538c0.087,0.115,0.237,0.168,0.439,0.168c0.159,0,0.359-0.074,0.604-0.222
	c0.241-0.148,0.465-0.336,0.667-0.565v-8.003h2.163v10.542H264.59L264.59,73.303z"/>
<path fill="#A2A2A2" d="M179.999,79.073c4.246,0,8.236,1.652,11.236,4.657c3.006,3.007,4.661,7.01,4.661,11.271h6.544
	c0-12.377-10.067-22.449-22.441-22.449V79.073L179.999,79.073z M180.007,67.516c15.135,0,27.447,12.333,27.447,27.494h6.544
	c0-18.756-15.249-34.014-33.991-34.014V67.516L180.007,67.516z M189.057,90.456c0,2.492-2.03,4.515-4.534,4.515
	c-2.501,0-4.53-2.022-4.53-4.515c0-2.496,2.029-4.516,4.53-4.516C187.027,85.94,189.057,87.96,189.057,90.456L189.057,90.456z"/>
<path fill="#A2A2A2" d="M135.847,72.009l-3.048,5.369l-2.745,4.834l-4.246,7.482c-0.229,0.399-0.742,0.54-1.139,0.308l-2.167-1.259
	c-0.397-0.23-0.537-0.745-0.306-1.147l3.055-5.383l3.662-6.447l3.324-5.852c0.227-0.401,0.738-0.542,1.135-0.31l2.167,1.255
	C135.936,71.093,136.074,71.608,135.847,72.009L135.847,72.009z M153.237,82.212h-4.041c-0.056-0.222-0.138-0.44-0.25-0.651
	c-0.109-0.199-0.417-0.792-0.806-1.543c-0.562-1.085-1.359-2.621-2.221-4.253h7.318c0.415,0,0.753,0.341,0.753,0.762v4.925
	C153.99,81.873,153.652,82.212,153.237,82.212L153.237,82.212z M131.79,82.212l3.66-6.447h3.314c1.282,2.95,2.239,5.008,2.959,6.447
	H131.79L131.79,82.212z M123.516,82.212h-4.761c-0.417,0-0.752-0.34-0.752-0.76v-4.925c0-0.42,0.336-0.762,0.752-0.762h8.423
	L123.516,82.212L123.516,82.212z M123.997,91.861l-2.8,1.929c-0.379,0.259-0.646,0.095-0.594-0.363l0.374-3.301
	c0.053-0.459,0.42-0.649,0.817-0.417l2.167,1.257C124.358,91.198,124.375,91.602,123.997,91.861L123.997,91.861z M146.54,84.327
	c-0.58,0.241-0.916,0.486-1.783,0.046c-0.867-0.439-5.19-10.529-6.299-13.159c-1.108-2.633-4.455-9.64-3.374-10.184
	c0.772-0.394,3.537,5.126,5.608,8.437c1.184,1.89,3.101,5.483,4.627,8.403c0.021,0.038,0.041,0.075,0.061,0.113
	c0.07,0.134,0.138,0.263,0.206,0.393c0.018,0.036,0.036,0.072,0.056,0.109c0.061,0.114,0.12,0.227,0.179,0.34
	c0.032,0.066,0.066,0.128,0.098,0.193c0.04,0.073,0.077,0.146,0.114,0.218c0.054,0.102,0.105,0.2,0.156,0.298
	c0.007,0.016,0.016,0.03,0.025,0.048c0.662,1.271,1.166,2.253,1.368,2.628c0.016,0.03,0.032,0.061,0.045,0.082
	C148.156,83.272,147.117,84.083,146.54,84.327L146.54,84.327z M149.749,88.786l-0.889,0.54c-0.423,0.257-0.992,0.116-1.262-0.314
	l-1.307-2.085c-0.268-0.433-0.131-0.971,0.308-1.2l1.244-0.649c0.44-0.227,0.989-0.041,1.223,0.411l1.032,2.004
	C150.33,87.948,150.173,88.529,149.749,88.786L149.749,88.786z M152.907,94.996c-0.274-0.885-2.358-0.944-3.29-2.274
	c-0.935-1.328-0.163-2.013,0.163-2.328C153.562,88.237,152.907,94.996,152.907,94.996L152.907,94.996z"/>
<path fill="#A2A2A2" d="M65.754,86.008c-4.291,0-7.768-3.584-7.768-8.004c0-4.421,3.478-8.006,7.768-8.006
	c4.288,0,7.765,3.584,7.765,8.006C73.52,82.423,70.042,86.008,65.754,86.008L65.754,86.008z M85.239,86.008
	c-4.289,0-7.767-3.584-7.767-8.004c0-4.421,3.478-8.006,7.767-8.006s7.765,3.584,7.765,8.006
	C93.003,82.423,89.528,86.008,85.239,86.008L85.239,86.008z"/>
<path fill-rule="evenodd" clip-rule="evenodd" fill="#A2A2A2" d="M29.9,76.201c-0.433,5.01-3.409,8.591-10.091,9.186
	c0.969,0.919,1.577,2.24,1.577,3.71v4.906H10.459v-3.599c-0.474,0.102-4.477,1.139-6.257-1.951
	c-0.299-0.533-0.785-2.401-2.099-3.435c-0.046-0.041-1.016-0.552-1.105-1.055c-0.011-0.07,0.062-0.216,0.157-0.252
	c0.1-0.038,1.697-0.713,3.476,1.614c0.537,0.778,1.749,3.767,5.988,1.92c0.016-0.068,0.109-0.122,0.247-0.168
	c0.272-0.642,0.669-1.214,1.161-1.682c-6.117-0.817-8.929-3.306-9.812-8.788c-0.558-3.794,0.517-6.948,2.129-8.505
	C4.098,67.773,3.293,65,4.545,62.068c1.357-0.281,3.846,0.724,6.032,2.347c3.084-1.149,8.875-0.849,10.949,0
	c0.983-0.84,4.502-2.801,6.011-2.344c0.443,1.164,1.083,3.985,0.198,6.041C29.7,70.199,30.254,72.892,29.9,76.201L29.9,76.201z"/>
<path fill="#A2A2A2" d="M308.468,27.478l-11.473-7.434l7.933-6.304l11.567,7.09L308.468,27.478L308.468,27.478z M304.928,13.74
	l-7.933-6.308L308.468,0l8.027,6.649L304.928,13.74L304.928,13.74z M328.063,13.74l-11.567-7.091L324.523,0l11.472,7.432
	L328.063,13.74L328.063,13.74z M324.523,27.478l-8.027-6.647l11.567-7.09l7.932,6.304L324.523,27.478L324.523,27.478z
	 M316.521,36.004l-11.498-6.842v-2.506l3.445,2.235l8.053-6.631l8.049,6.631l3.445-2.235v2.506L316.521,36.004L316.521,36.004z"/>
<path fill="#A2A2A2" d="M256.796,15.104c-0.116,0.113-0.227,0.175-0.347,0.173c-0.209,0-0.388-0.143-0.441-0.339
	c-0.013-0.041-0.018-0.12-0.018-0.165V9.923c-1.306,0-3.358-0.068-4.345,0.125c-2.825,0.454-3.665,2.475-3.665,5.652v8.17
	l-6.985,6.991V20.132c0-0.402,0-4.447,0-5.356c0-7.667,3.64-11.773,10.769-11.773h9.011l8.124,0.002L256.796,15.104L256.796,15.104z
	 M260.228,33.002h-9.012l-8.124-0.001l12.103-12.099c0.116-0.113,0.227-0.175,0.347-0.175c0.209,0.002,0.388,0.145,0.441,0.341
	c0.013,0.04,0.019,0.12,0.019,0.163v4.852c1.305,0,3.357,0.068,4.344-0.125c2.825-0.454,3.665-2.477,3.665-5.652v-8.17l6.985-6.991
	v10.729c0,0.401,0,4.447,0,5.355C270.996,28.897,267.358,33.002,260.228,33.002L260.228,33.002z"/>
<path fill="#A2A2A2" d="M208.774,30.496c-0.424,0.34-0.874,0.647-1.326,0.916l-0.02,0.014c-3.438,2.165-7.872,3.488-11.79,3.578
	c-0.125,0.001-0.246,0.005-0.366,0.005c-6.159-0.004-10.741-3.379-14.922-7.012c-0.201-0.161-0.347-0.41-0.347-0.679
	c-0.002-0.208,0.088-0.413,0.238-0.555c0.148-0.139,0.354-0.214,0.556-0.214c0.155,0,0.313,0.043,0.469,0.124
	c4.455,2.476,8.867,4.988,14.277,4.986c0.124,0,0.251,0,0.378-0.005c3.439-0.073,7.156-0.916,10.696-2.353v-0.003l0.326-0.13
	l0.25-0.104c0.17-0.073,0.351-0.154,0.527-0.225c0.157-0.073,0.325-0.113,0.49-0.111c0.517,0,0.997,0.382,1.006,0.949
	C209.221,29.994,209.039,30.299,208.774,30.496L208.774,30.496z M210.794,31.994c-0.17,0.134-0.368,0.226-0.603,0.229h-0.005
	c-0.158,0-0.342-0.054-0.485-0.191c-0.148-0.136-0.216-0.341-0.212-0.511c0-0.116,0.022-0.222,0.061-0.32
	c0.161-0.422,0.4-1.056,0.599-1.689c0.202-0.633,0.353-1.28,0.347-1.63c0.002-0.093-0.009-0.156-0.018-0.182
	c-0.006-0.004-0.015-0.009-0.026-0.015c-0.038-0.018-0.107-0.043-0.199-0.061c-0.181-0.042-0.445-0.061-0.741-0.059
	c-0.417,0-0.899,0.038-1.353,0.086c-0.528,0.075-0.981,0.12-1.29,0.186l-0.025,0.004l-0.028,0.001
	c-0.032,0.005-0.068,0.007-0.104,0.007c-0.157,0-0.336-0.041-0.489-0.167c-0.154-0.123-0.247-0.334-0.241-0.517
	c0.011-0.336,0.194-0.554,0.414-0.72c0.356-0.258,0.739-0.476,1.159-0.649V25.78l0.357-0.116l0.013-0.005l0.635-0.213v0.043
	c0.629-0.14,1.259-0.193,1.827-0.193c0.792,0.004,1.448,0.097,1.898,0.27c0.152,0.066,0.292,0.127,0.438,0.286l0.016,0.021
	l0.017,0.021c0.143,0.218,0.216,0.479,0.229,0.824v0.002l0.004,0.207C212.965,28.231,212.406,30.542,210.794,31.994L210.794,31.994z
	 M205.756,21.748c0.22,0.361,0.293,0.799-0.071,1.092c-0.8,0.726-2.328,2.038-3.204,2.77c-0.29,0.216-0.652,0.216-1.018,0.071
	c-1.382-1.166-1.602-1.677-2.401-2.771c-1.385,1.46-2.547,2.262-3.931,2.7c-0.873,0.216-1.82,0.363-2.984,0.363
	c-3.493,0-6.26-2.185-6.26-6.486c0-3.426,1.82-5.757,4.513-6.85c1.382-0.658,3.056-0.947,4.731-1.167
	c1.092-0.145,2.183-0.218,3.13-0.288v-0.585c0-1.021,0.071-2.187-0.51-3.061c-0.509-0.729-1.455-1.094-2.329-1.094h-0.291
	c-1.456,0.145-2.767,0.948-3.131,2.551c-0.071,0.363-0.29,0.728-0.728,0.801l-4.075-0.511c-0.291-0.071-0.729-0.29-0.583-0.873
	c0.873-4.593,4.805-6.197,8.517-6.413h0.874c2.038,0,4.659,0.585,6.332,2.113c2.037,1.894,1.818,4.445,1.818,7.214v6.558
	C204.156,19.851,204.958,20.727,205.756,21.748L205.756,21.748z M198.261,15.406V14.53c-1.092,0-2.185,0.073-3.13,0.292
	c-1.747,0.511-3.131,1.604-3.131,3.937c0,1.822,0.947,3.061,2.548,3.061c0.22,0,0.438-0.071,0.583-0.071
	c0.945-0.222,1.819-0.878,2.329-1.897C198.333,18.394,198.261,17.082,198.261,15.406L198.261,15.406z"/>
<path fill="#A2A2A2" d="M136.993,1.996l-20.004,29.01h4.09l4.552-6.876h22.726l4.55,6.876h4.092L136.993,1.996L136.993,1.996z
	 M128.246,21.002l8.747-12.682l8.746,12.682H128.246L128.246,21.002z"/>
<path fill-rule="evenodd" clip-rule="evenodd" fill="#A2A2A2" d="M81.851,16.771L92.507,6.476c0.302,0.297,0.488,0.708,0.488,1.164
	v20.727c0,0.431-0.17,0.819-0.441,1.11L81.851,16.771L81.851,16.771z M58.542,6.428c0.29-0.261,0.672-0.424,1.094-0.424h31.719
	c0.422,0,0.803,0.163,1.094,0.424L75.495,19.64L58.542,6.428L58.542,6.428z M58.438,29.477c-0.273-0.292-0.443-0.68-0.443-1.11V7.64
	c0-0.456,0.188-0.867,0.49-1.164l10.654,10.295L58.438,29.477L58.438,29.477z M75.495,22.912l4.45-4.298L92.48,29.552
	c-0.293,0.279-0.688,0.451-1.125,0.451H59.637c-0.437,0-0.832-0.171-1.125-0.451l12.535-10.938L75.495,22.912L75.495,22.912z"/>
<path fill="#A2A2A2" d="M17.171,17.438c0.011-0.018,0.021-0.034,0.032-0.05v0.05H17.171L17.171,17.438z M29.627,35H2.364
	C1.059,35,0,33.972,0,32.708V5.298c0-1.264,1.059-2.292,2.364-2.292h27.263c1.307,0,2.365,1.028,2.365,2.292v27.41
	C31.992,33.972,30.934,35,29.627,35L29.627,35z M4.865,29.788h4.833V15.342H4.865V29.788L4.865,29.788z M7.312,8.376
	c-1.652,0-2.734,1.08-2.734,2.496c0,1.388,1.05,2.496,2.669,2.496H7.28c1.686,0,2.735-1.108,2.735-2.496
	C9.983,9.456,8.966,8.376,7.312,8.376L7.312,8.376z M27.121,21.505c0-4.439-2.383-6.504-5.562-6.504
	c-2.565,0-3.713,1.402-4.355,2.387v-2.045H12.37c0.064,1.354,0,14.446,0,14.446h4.833v-8.069c0-0.431,0.03-0.862,0.159-1.171
	c0.351-0.864,1.145-1.756,2.48-1.756c1.749,0,2.448,1.325,2.448,3.267v7.729h4.831V21.505L27.121,21.505z"/>
</svg>
