<?xml version="1.0" encoding="utf-8"?>
<!-- Generator: Adobe Illustrator 15.0.2, SVG Export Plug-In  -->
<!DOCTYPE svg PUBLIC "-//W3C//DTD SVG 1.1//EN" "http://www.w3.org/Graphics/SVG/1.1/DTD/svg11.dtd" [
	<!ENTITY ns_flows "http://ns.adobe.com/Flows/1.0/">
]>
<svg version="1.1"
	 xmlns="http://www.w3.org/2000/svg" xmlns:xlink="http://www.w3.org/1999/xlink" xmlns:a="http://ns.adobe.com/AdobeSVGViewerExtensions/3.0/"
	 x="0px" y="0px" width="240px" height="120px" viewBox="-11.125 -9.588 240 120"
	 overflow="visible" enable-background="new -11.125 -9.588 240 120" xml:space="preserve">
<defs>
</defs>
<path id="Email_3_" fill-rule="evenodd" clip-rule="evenodd" fill="#FFFFFF" d="M204.788,78.943l10.96-10.59
	c0.31,0.306,0.502,0.729,0.502,1.197v21.32c0,0.442-0.175,0.843-0.454,1.143L204.788,78.943z M180.811,68.306
	c0.299-0.27,0.691-0.438,1.126-0.438h32.625c0.436,0,0.827,0.168,1.127,0.438L198.25,81.895L180.811,68.306z M180.705,92.014
	c-0.28-0.3-0.456-0.7-0.456-1.143v-21.32c0-0.469,0.193-0.892,0.503-1.197l10.96,10.59L180.705,92.014z M198.25,85.261l4.576-4.422
	l12.894,11.252c-0.302,0.286-0.708,0.464-1.157,0.464h-32.625c-0.449,0-0.855-0.178-1.157-0.464l12.894-11.252L198.25,85.261z"/>
<path id="GooglePlus_Over_1_" fill="#FFFFFF" d="M160.552,81.622H154.4v6.045c0,0.461-0.382,0.836-0.851,0.836h-1.752
	c-0.471,0-0.853-0.375-0.853-0.836v-6.045h-6.153c-0.468,0-0.851-0.373-0.851-0.835v-1.722c0-0.46,0.383-0.837,0.851-0.837h6.153
	v-6.041c0-0.463,0.382-0.838,0.853-0.838h1.752c0.469,0,0.851,0.375,0.851,0.838v6.041h6.152c0.469,0,0.851,0.377,0.851,0.837v1.722
	C161.403,81.249,161.021,81.622,160.552,81.622L160.552,81.622z M144.531,65.124l-2.42,1.723c-0.146,0.102-0.32,0.156-0.5,0.156
	h-0.867c1.118,1.318,1.775,3.194,1.775,5.307c0,2.329-1.201,4.533-3.383,6.21c-1.686,1.289-1.752,1.643-1.752,2.383
	c0.02,0.404,1.197,1.725,2.49,2.624c3.02,2.098,4.144,4.153,4.144,7.591c0,3.582-2.774,6.684-7.063,7.905
	c-1.377,0.392-2.865,0.592-4.426,0.592c-1.737,0-3.41-0.198-4.968-0.585c-3.018-0.748-5.25-2.165-6.289-3.99
	c-0.447-0.789-0.675-1.632-0.675-2.505c0-0.898,0.218-1.809,0.648-2.709c1.655-3.461,6.012-5.786,10.836-5.786
	c0.05,0,0.094,0,0.141,0c-0.394-0.678-0.585-1.378-0.585-2.119c0-0.367,0.05-0.742,0.148-1.121
	c-5.062-0.116-8.849-3.756-8.849-8.557c0-3.39,2.758-6.69,6.702-8.026c1.182-0.4,2.385-0.604,3.568-0.604h10.824
	c0.37,0,0.695,0.234,0.81,0.579C144.957,64.534,144.832,64.912,144.531,65.124L144.531,65.124z M126.204,91.393
	c0,2.719,2.768,4.849,6.304,4.849c4.662,0,7.025-1.578,7.025-4.689c0-0.296-0.036-0.602-0.11-0.905
	c-0.313-1.211-1.441-1.966-3.147-3.106c-0.234-0.157-0.479-0.32-0.732-0.492c-0.737-0.222-1.521-0.339-2.321-0.347h-0.1
	C129.437,86.701,126.204,88.893,126.204,91.393L126.204,91.393z M136.933,72.627c-0.421-3.149-2.71-5.768-5.103-5.837l-0.096-0.002
	c-0.848,0-1.603,0.343-2.179,0.988c-0.89,0.997-1.267,2.578-1.03,4.337c0.418,3.146,2.756,5.864,5.1,5.934h0.038
	c0.002,0,0.002,0,0.002,0c0.882,0,1.625-0.34,2.201-0.987C136.77,76.049,137.169,74.391,136.933,72.627L136.933,72.627z"/>
<path id="Facebook_Over_1_" fill-rule="evenodd" clip-rule="evenodd" fill="#FFFFFF" d="M87.785,60.011c0,2.215,0,6.182,0,6.182
	s-4.557-0.454-5.698,1.293c-0.624,0.955-0.254,3.749-0.309,5.756c1.988,0,4.055,0,6.043,0c-0.511,2.347-0.877,3.937-1.252,5.969
	c-1.721,0-4.825,0-4.825,0v19.205c0,0-5.695,0-8.372,0c0.002-5.921-0.001-12.829,0-19.131c-1.301,0-2.263,0-3.564,0
	c0-2.215,0-3.828,0-6.043c1.262,0,2.261,0,3.524,0c0.18-4.42,0.248-8.796,2.442-11.025C78.242,59.71,80.595,60.011,87.785,60.011
	L87.785,60.011z"/>
<path id="Twitter_Over_1_" fill-rule="evenodd" clip-rule="evenodd" fill="#FFFFFF" d="M26.119,66.014
	c3.052-0.055,4.675,1.059,6.228,2.473c1.316-0.114,3.027-0.849,4.035-1.361c0.327-0.178,0.654-0.358,0.981-0.536
	c-0.576,1.556-1.355,2.774-2.556,3.697c-0.266,0.207-0.53,0.484-0.866,0.614c0,0.007,0,0.012,0,0.019
	c1.711-0.017,3.12-0.788,4.459-1.207c0,0.007,0,0.013,0,0.02c-0.703,1.118-1.655,2.253-2.67,3.065
	c-0.411,0.327-0.821,0.652-1.23,0.978c0.021,1.811-0.027,3.537-0.365,5.059c-1.969,8.842-7.181,14.846-15.434,17.419
	c-2.963,0.923-7.752,1.303-11.147,0.459c-1.683-0.418-3.204-0.891-4.631-1.513c-0.793-0.348-1.528-0.724-2.229-1.151
	C0.46,93.906,0.231,93.766,0,93.626c0.766,0.022,1.661,0.234,2.517,0.096c0.775-0.126,1.534-0.093,2.25-0.25
	c1.782-0.39,3.364-0.906,4.728-1.704c0.661-0.387,1.663-0.842,2.132-1.398c-0.884,0.015-1.686-0.19-2.344-0.422
	c-2.548-0.899-4.033-2.555-4.997-5.04c0.773,0.084,2.998,0.286,3.518-0.153c-0.973-0.053-1.908-0.616-2.576-1.034
	c-2.05-1.283-3.721-3.435-3.709-6.745c0.269,0.128,0.539,0.255,0.808,0.384c0.515,0.216,1.039,0.333,1.653,0.459
	c0.26,0.055,0.778,0.206,1.077,0.096c-0.013,0-0.026,0-0.04,0c-0.396-0.461-1.042-0.77-1.442-1.265
	c-1.314-1.634-2.547-4.15-1.767-7.146c0.198-0.762,0.512-1.432,0.846-2.051c0.013,0.006,0.024,0.013,0.038,0.02
	c0.154,0.32,0.496,0.555,0.712,0.824c0.67,0.832,1.5,1.58,2.344,2.241c2.877,2.251,5.468,3.633,9.63,4.657
	c1.055,0.259,2.276,0.457,3.536,0.459c-0.353-1.03-0.241-2.7,0.038-3.698c0.702-2.51,2.225-4.318,4.459-5.288
	c0.535-0.232,1.128-0.401,1.749-0.536C25.478,66.09,25.798,66.052,26.119,66.014L26.119,66.014z"/>
<path id="Email_2_" fill-rule="evenodd" clip-rule="evenodd" fill="#A2A2A2" d="M204.788,18.943l10.96-10.59
	c0.31,0.306,0.502,0.729,0.502,1.198v21.32c0,0.443-0.175,0.842-0.454,1.143L204.788,18.943z M180.811,8.306
	c0.299-0.27,0.691-0.438,1.126-0.438h32.625c0.436,0,0.827,0.168,1.127,0.438L198.25,21.894L180.811,8.306z M180.705,32.014
	c-0.28-0.3-0.456-0.7-0.456-1.143V9.551c0-0.469,0.193-0.892,0.503-1.198l10.96,10.59L180.705,32.014z M198.25,25.261l4.576-4.422
	l12.894,11.252c-0.302,0.285-0.708,0.463-1.157,0.463h-32.625c-0.449,0-0.855-0.178-1.157-0.463l12.894-11.252L198.25,25.261z"/>
<path id="GooglePlus_1_" fill="#A2A2A2" d="M160.552,21.623H154.4v6.043c0,0.462-0.382,0.837-0.851,0.837h-1.752
	c-0.471,0-0.853-0.375-0.853-0.837v-6.043h-6.153c-0.468,0-0.851-0.375-0.851-0.836v-1.721c0-0.462,0.383-0.837,0.851-0.837h6.153
	v-6.043c0-0.46,0.382-0.835,0.853-0.835h1.752c0.469,0,0.851,0.375,0.851,0.835v6.043h6.152c0.469,0,0.851,0.375,0.851,0.837v1.721
	C161.403,21.248,161.021,21.623,160.552,21.623L160.552,21.623z M144.531,5.124l-2.42,1.723c-0.146,0.103-0.32,0.157-0.5,0.157
	h-0.867c1.118,1.318,1.775,3.194,1.775,5.306c0,2.329-1.201,4.532-3.383,6.209c-1.686,1.29-1.752,1.644-1.752,2.382
	c0.02,0.406,1.197,1.726,2.49,2.624c3.02,2.099,4.144,4.155,4.144,7.592c0,3.581-2.774,6.682-7.063,7.906
	c-1.377,0.391-2.865,0.589-4.426,0.589c-1.737,0-3.41-0.196-4.968-0.583c-3.018-0.748-5.25-2.165-6.289-3.992
	c-0.447-0.79-0.675-1.63-0.675-2.504c0-0.898,0.218-1.808,0.648-2.708c1.655-3.462,6.012-5.787,10.836-5.787c0.05,0,0.094,0,0.141,0
	c-0.394-0.677-0.585-1.379-0.585-2.119c0-0.366,0.05-0.741,0.148-1.123c-5.062-0.114-8.849-3.753-8.849-8.555
	c0-3.389,2.758-6.69,6.702-8.028c1.182-0.398,2.385-0.603,3.568-0.603h10.824c0.37,0,0.695,0.235,0.81,0.578
	C144.957,4.535,144.832,4.913,144.531,5.124L144.531,5.124z M126.204,31.393c0,2.719,2.768,4.849,6.304,4.849
	c4.662,0,7.025-1.579,7.025-4.692c0-0.296-0.036-0.6-0.11-0.903c-0.313-1.211-1.441-1.965-3.147-3.108
	c-0.234-0.155-0.479-0.319-0.732-0.49c-0.737-0.222-1.521-0.339-2.321-0.347l-0.1-0.001C129.437,26.7,126.204,28.893,126.204,31.393
	L126.204,31.393z M136.933,12.627c-0.421-3.149-2.71-5.767-5.103-5.836l-0.096-0.001c-0.848,0-1.603,0.34-2.179,0.986
	c-0.89,0.999-1.267,2.58-1.03,4.338c0.418,3.145,2.756,5.865,5.1,5.934h0.038c0.002,0,0.002,0,0.002,0
	c0.882,0,1.625-0.34,2.201-0.988C136.77,16.049,137.169,14.391,136.933,12.627L136.933,12.627z"/>
<path id="Facebook_1_" fill-rule="evenodd" clip-rule="evenodd" fill="#A2A2A2" d="M87.785,0.011c0,2.215,0,6.182,0,6.182
	s-4.557-0.454-5.698,1.293c-0.624,0.953-0.254,3.748-0.309,5.755c1.988,0,4.055,0,6.043,0c-0.511,2.345-0.877,3.938-1.252,5.967
	c-1.721,0-4.825,0-4.825,0v19.207c0,0-5.695,0-8.372,0c0.002-5.922-0.001-12.829,0-19.131c-1.301,0-2.263,0-3.564,0
	c0-2.214,0-3.828,0-6.043c1.262,0,2.261,0,3.524,0c0.18-4.419,0.248-8.796,2.442-11.025C78.242-0.29,80.595,0.011,87.785,0.011
	L87.785,0.011z"/>
<path id="Twitter_1_" fill-rule="evenodd" clip-rule="evenodd" fill="#A2A2A2" d="M26.119,6.015c3.052-0.055,4.675,1.057,6.228,2.47
	c1.316-0.112,3.027-0.847,4.035-1.359c0.327-0.18,0.654-0.358,0.981-0.537c-0.576,1.556-1.355,2.772-2.556,3.698
	c-0.266,0.205-0.53,0.482-0.866,0.612c0,0.007,0,0.013,0,0.02c1.711-0.018,3.12-0.79,4.459-1.208c0,0.007,0,0.014,0,0.02
	c-0.703,1.118-1.655,2.251-2.67,3.065c-0.411,0.325-0.821,0.65-1.23,0.978c0.021,1.81-0.027,3.538-0.365,5.059
	C32.165,27.676,26.953,33.679,18.7,36.25c-2.963,0.925-7.752,1.303-11.147,0.46c-1.683-0.417-3.204-0.89-4.631-1.514
	c-0.793-0.347-1.528-0.722-2.229-1.149C0.46,33.907,0.231,33.767,0,33.626c0.766,0.023,1.661,0.235,2.517,0.096
	c0.775-0.125,1.534-0.092,2.25-0.249c1.782-0.392,3.364-0.909,4.728-1.706c0.661-0.387,1.663-0.841,2.132-1.399
	c-0.884,0.017-1.686-0.188-2.344-0.421c-2.548-0.9-4.033-2.553-4.997-5.039c0.773,0.084,2.998,0.286,3.518-0.154
	c-0.973-0.053-1.908-0.616-2.576-1.035c-2.05-1.282-3.721-3.434-3.709-6.745c0.269,0.129,0.539,0.256,0.808,0.383
	c0.515,0.218,1.039,0.333,1.653,0.461c0.26,0.053,0.778,0.207,1.077,0.096c-0.013,0-0.026,0-0.04,0
	c-0.396-0.462-1.042-0.77-1.442-1.265c-1.314-1.635-2.547-4.15-1.767-7.147c0.198-0.76,0.512-1.431,0.846-2.05
	c0.013,0.007,0.024,0.013,0.038,0.02c0.154,0.32,0.496,0.555,0.712,0.822c0.67,0.833,1.5,1.582,2.344,2.243
	c2.877,2.25,5.468,3.632,9.63,4.656c1.055,0.261,2.276,0.459,3.536,0.461c-0.353-1.032-0.241-2.7,0.038-3.7
	c0.702-2.508,2.225-4.318,4.459-5.288c0.535-0.231,1.128-0.399,1.749-0.537C25.478,6.09,25.798,6.052,26.119,6.015L26.119,6.015z"/>
</svg>
